<svg  viewBox="0 0 20 20" fill="none" xmlns="http://www.w3.org/2000/svg">
<path d="M11.6666 13.3333V6.66667C11.6666 5.88099 11.6666 5.48816 11.4226 5.24408C11.1785 5 10.7857 5 9.99998 5C9.21431 5 8.82147 5 8.57739 5.24408C8.33331 5.48816 8.33331 5.88099 8.33331 6.66667V13.3333C8.33331 14.119 8.33331 14.5118 8.57739 14.7559C8.82147 15 9.21431 15 9.99998 15C10.7857 15 11.1785 15 11.4226 14.7559C11.6666 14.5118 11.6666 14.119 11.6666 13.3333Z" stroke="#F20E17" stroke-width="1.5" stroke-linecap="round" stroke-linejoin="round"/>
<path d="M17.5 7.5V5.83333C17.5 5.04766 17.5 4.65482 17.2559 4.41074C17.0119 4.16666 16.619 4.16666 15.8334 4.16666C15.0477 4.16666 14.6548 4.16666 14.4108 4.41074C14.1667 4.65482 14.1667 5.04766 14.1667 5.83333V7.5C14.1667 8.28567 14.1667 8.67851 14.4108 8.92259C14.6548 9.16666 15.0477 9.16666 15.8334 9.16666C16.619 9.16666 17.0119 9.16666 17.2559 8.92259C17.5 8.67851 17.5 8.28567 17.5 7.5Z" stroke="#F20E17" stroke-width="1.5" stroke-linecap="round" stroke-linejoin="round"/>
<path d="M5.83333 11.6667V10C5.83333 9.21433 5.83333 8.82149 5.58926 8.57741C5.34518 8.33334 4.95234 8.33334 4.16667 8.33334C3.38099 8.33334 2.98816 8.33334 2.74408 8.57741C2.5 8.82149 2.5 9.21433 2.5 10V11.6667C2.5 12.4523 2.5 12.8452 2.74408 13.0893C2.98816 13.3333 3.38099 13.3333 4.16667 13.3333C4.95234 13.3333 5.34518 13.3333 5.58926 13.0893C5.83333 12.8452 5.83333 12.4523 5.83333 11.6667Z" stroke="#F20E17" stroke-width="1.5" stroke-linecap="round" stroke-linejoin="round"/>
<path d="M10 17.5L10 15" stroke="#F20E17" stroke-width="1.5" stroke-linecap="round" stroke-linejoin="round"/>
<path d="M15.8333 10.8333L15.8333 9.16666" stroke="#F20E17" stroke-width="1.5" stroke-linecap="round" stroke-linejoin="round"/>
<path d="M10 5L10 2.5" stroke="#F20E17" stroke-width="1.5" stroke-linecap="round" stroke-linejoin="round"/>
<path d="M15.8333 4.16667L15.8333 2.5" stroke="#F20E17" stroke-width="1.5" stroke-linecap="round" stroke-linejoin="round"/>
<path d="M4.16669 15L4.16669 13.3333" stroke="#F20E17" stroke-width="1.5" stroke-linecap="round" stroke-linejoin="round"/>
<path d="M4.16669 8.33333L4.16669 6.66666" stroke="#F20E17" stroke-width="1.5" stroke-linecap="round" stroke-linejoin="round"/>
</svg>
