<svg  viewBox="0 0 20 20" fill="none" xmlns="http://www.w3.org/2000/svg">
<path d="M11.6666 14.1667V7.49999C11.6666 6.71432 11.6666 6.32148 11.4226 6.07741C11.1785 5.83333 10.7857 5.83333 9.99998 5.83333C9.21431 5.83333 8.82147 5.83333 8.57739 6.07741C8.33331 6.32148 8.33331 6.71432 8.33331 7.5V14.1667C8.33331 14.9523 8.33331 15.3452 8.57739 15.5893C8.82147 15.8333 9.21431 15.8333 9.99998 15.8333C10.7857 15.8333 11.1785 15.8333 11.4226 15.5893C11.6666 15.3452 11.6666 14.9523 11.6666 14.1667Z" stroke="currentColor" stroke-width="1.5" stroke-linecap="round" stroke-linejoin="round"/>
<path d="M17.5 8.33333V6.66667C17.5 5.88099 17.5 5.48816 17.2559 5.24408C17.0119 5 16.619 5 15.8334 5C15.0477 5 14.6548 5 14.4108 5.24408C14.1667 5.48816 14.1667 5.88099 14.1667 6.66667V8.33333C14.1667 9.11901 14.1667 9.51184 14.4108 9.75592C14.6548 10 15.0477 10 15.8334 10C16.619 10 17.0119 10 17.2559 9.75592C17.5 9.51184 17.5 9.11901 17.5 8.33333Z" stroke="currentColor" stroke-width="1.5" stroke-linecap="round" stroke-linejoin="round"/>
<path d="M5.83333 14.1667V12.5C5.83333 11.7143 5.83333 11.3215 5.58926 11.0774C5.34518 10.8333 4.95234 10.8333 4.16667 10.8333C3.38099 10.8333 2.98816 10.8333 2.74408 11.0774C2.5 11.3215 2.5 11.7143 2.5 12.5V14.1667C2.5 14.9523 2.5 15.3452 2.74408 15.5893C2.98816 15.8333 3.38099 15.8333 4.16667 15.8333C4.95234 15.8333 5.34518 15.8333 5.58926 15.5893C5.83333 15.3452 5.83333 14.9523 5.83333 14.1667Z" stroke="currentColor" stroke-width="1.5" stroke-linecap="round" stroke-linejoin="round"/>
<path d="M10 5.83333L10 3.33333" stroke="currentColor" stroke-width="1.5" stroke-linecap="round" stroke-linejoin="round"/>
<path d="M15.8333 4.99999L15.8333 3.33333" stroke="currentColor" stroke-width="1.5" stroke-linecap="round" stroke-linejoin="round"/>
<path d="M4.16669 10.8333L4.16669 9.16666" stroke="currentColor" stroke-width="1.5" stroke-linecap="round" stroke-linejoin="round"/>
</svg>
