<svg width="152" height="32" viewBox="0 0 152 32" fill="none" xmlns="http://www.w3.org/2000/svg">
<mask id="mask0_467_7029" style="mask-type:luminance" maskUnits="userSpaceOnUse" x="1" y="5" width="150" height="22">
<path d="M150.5 5.5H1.5V26.5H150.5V5.5Z" fill="white"/>
</mask>
<g mask="url(#mask0_467_7029)">
<path fill-rule="evenodd" clip-rule="evenodd" d="M38.6272 25.5738C39.767 26.1912 41.1102 26.4999 42.6569 26.4999C44.509 26.4999 46.076 26.0986 47.3582 25.2959C48.6607 24.4727 49.6478 23.3716 50.3194 21.9926C51.0113 20.6136 51.3574 19.1008 51.3574 17.4544C51.3574 16.1166 51.052 14.9229 50.4415 13.8731C49.8309 12.8235 48.966 11.99 47.8466 11.3725C46.7272 10.7551 45.3841 10.4463 43.8169 10.4463C41.965 10.4463 40.3876 10.858 39.0851 11.6812C37.8029 12.4839 36.8158 13.5747 36.1239 14.9537C35.4523 16.3121 35.1166 17.8249 35.1166 19.4919C35.1166 20.8091 35.4218 22.0028 36.0323 23.0731C36.6429 24.1227 37.5079 24.9564 38.6272 25.5738ZM119.583 5.50001H114.395L112.46 13.9967C112.297 13.1528 111.992 12.4736 111.544 11.9591C111.117 11.4446 110.588 11.0638 109.957 10.8169C109.346 10.5698 108.705 10.4463 108.033 10.4463C106.873 10.4463 105.825 10.7242 104.889 11.2799C103.973 11.8151 103.179 12.5559 102.508 13.5028C101.856 14.4289 101.358 15.4785 101.012 16.6517C100.666 17.8249 100.493 19.0289 100.493 20.2637C100.493 21.6015 100.717 22.7334 101.164 23.6597C101.633 24.5653 102.264 25.2651 103.057 25.759C103.871 26.2323 104.787 26.4691 105.805 26.4691C106.843 26.4691 107.789 26.1912 108.644 25.6354C109.499 25.0593 110.17 24.2771 110.659 23.2892L110.14 26.1912H114.841L119.583 5.50001ZM127.027 26.4691C125.521 26.4691 124.198 26.1809 123.058 25.6046C121.918 25.0077 121.033 24.1845 120.402 23.1348C119.771 22.0852 119.456 20.8606 119.456 19.4611C119.456 17.7322 119.802 16.1988 120.494 14.8611C121.206 13.5028 122.203 12.4325 123.485 11.6504C124.788 10.8682 126.335 10.4772 128.126 10.4772C129.611 10.4772 130.873 10.7653 131.911 11.3417C132.969 11.8974 133.773 12.6897 134.322 13.7189C134.873 14.7479 135.147 15.9622 135.147 17.3617C135.147 17.7528 135.127 18.1644 135.086 18.5966C135.045 19.0289 134.963 19.4508 134.841 19.8624H124.28C124.291 20.4807 124.413 21.0055 124.645 21.4369C124.91 21.8897 125.256 22.2396 125.683 22.4865C126.131 22.7129 126.65 22.8261 127.24 22.8261C127.974 22.8261 128.563 22.6615 129.012 22.3321C129.459 21.9823 129.805 21.5501 130.048 21.0356L134.322 22.7334C133.977 23.5156 133.438 24.1845 132.705 24.7401C131.992 25.2959 131.148 25.7281 130.17 26.0368C129.214 26.3249 128.166 26.4691 127.027 26.4691ZM86.9335 26.4691C85.9159 26.4691 85.0001 26.2323 84.186 25.759C83.3923 25.2651 82.7613 24.5653 82.2933 23.6597C81.8456 22.7334 81.6216 21.6015 81.6216 20.2637C81.6216 19.0289 81.7947 17.8249 82.1406 16.6517C82.4866 15.4785 82.9852 14.4289 83.6366 13.5028C84.3081 12.5559 85.1018 11.8151 86.0177 11.2799C86.9539 10.7242 88.002 10.4463 89.1621 10.4463C89.8337 10.4463 90.4748 10.5698 91.0853 10.8169C91.7163 11.0638 92.2453 11.4446 92.6727 11.9591C93.1205 12.4736 93.4258 13.1528 93.5886 13.9967L94.3213 10.7551H99.5109L95.9698 26.1912H91.2685L91.7874 23.2892C91.299 24.2771 90.6274 25.0593 89.7726 25.6354C88.9178 26.1912 87.9714 26.4691 86.9335 26.4691ZM139.728 10.7551L136.185 26.1912H141.375L143.024 19.0597C143.268 18.0307 143.615 17.2073 144.062 16.5899C144.51 15.9725 145.029 15.53 145.619 15.2624C146.23 14.9743 146.851 14.8302 147.481 14.8302C147.909 14.8302 148.254 14.8611 148.519 14.9229C148.805 14.964 149.049 15.0361 149.252 15.139L150.504 10.7242C150.34 10.6419 150.137 10.5801 149.893 10.539C149.669 10.4772 149.384 10.4463 149.038 10.4463C148.061 10.4463 147.186 10.6727 146.413 11.1256C145.639 11.5783 144.988 12.2061 144.459 13.0088C144.19 13.4153 143.949 13.859 143.733 14.3396L144.337 10.7551H139.728ZM71.4866 10.7551L67.9455 26.1912H73.1351L74.7837 19.0597C75.0279 18.0307 75.3738 17.2073 75.8216 16.5899C76.2693 15.9725 76.7883 15.53 77.3786 15.2624C77.9891 14.9743 78.6098 14.8302 79.2407 14.8302C79.6681 14.8302 80.0142 14.8611 80.2787 14.9229C80.5636 14.964 80.8079 15.0361 81.0113 15.139L82.263 10.7242C82.1002 10.6419 81.8967 10.5801 81.6525 10.539C81.4286 10.4772 81.1437 10.4463 80.7977 10.4463C79.8208 10.4463 78.9456 10.6727 78.1723 11.1256C77.3988 11.5783 76.7476 12.2061 76.2184 13.0088C75.9504 13.4153 75.7085 13.859 75.4926 14.3396L76.0964 10.7551H71.4866ZM71.5007 5.81553L70.5544 9.92155H64.052L60.3275 26.1912H55.0768L58.8011 9.92155H52.2376L53.184 5.81553H71.5007ZM1.50365 26.1912L6.17447 5.81553H13.7453C16.1468 5.81553 18.0192 6.36089 19.3625 7.45172C20.7261 8.522 21.4078 10.0142 21.4078 11.9282C21.4078 13.4101 21.0619 14.7273 20.3698 15.8798C19.6779 17.0119 18.6806 17.9071 17.3781 18.5658C16.7389 18.8789 16.0408 19.1152 15.2837 19.2747C16.2344 18.9272 17.1218 18.4503 17.8834 17.7356C18.7988 16.8758 19.457 15.2145 19.457 15.2145C19.457 15.2145 19.8929 14.1394 19.5053 12.9617C19.1179 11.7842 17.574 10.5979 16.1538 11.078C16.0998 11.0962 16.037 11.1217 15.9777 11.1476C15.9743 11.1404 15.971 11.1334 15.9675 11.1263C16.6857 10.6211 16.8467 9.59129 16.8467 9.59129C16.262 9.43539 15.4342 9.7254 15.0953 9.86137C15.0953 9.86137 15.2518 9.76255 15.4418 9.67983C15.8596 8.46207 15.5792 6.78996 12.9838 6.29588C12.9838 6.29588 15.339 8.14766 12.3181 9.58745C12.3181 9.58745 12.5107 9.46684 12.6564 9.33533C12.3405 9.28654 11.3869 9.19342 10.583 9.6163C9.80028 9.45272 9.08277 8.94897 9.42868 7.57147C9.42868 7.57147 7.59348 9.30189 9.53613 11.051C9.57568 11.0869 9.58513 11.1428 9.55993 11.189C8.82807 12.5464 8.15604 13.3497 7.6581 13.9448C7.03406 14.6908 6.6835 15.1097 6.83113 15.8832C6.9353 16.4285 8.54717 17.2133 9.40613 16.8398C10.5116 16.3599 11.7892 15.9358 12.5509 15.932C12.7149 15.9306 12.8654 15.8511 12.9546 15.7215C13.393 15.0862 13.3106 14.1964 13.3106 14.1964C13.3106 14.1964 13.8884 15.4045 12.4597 17.0253C12.4597 17.0253 12.0801 17.4303 11.9321 17.502C11.4503 17.7352 10.9275 17.9625 10.3899 18.1962C10.2204 18.2699 10.0494 18.3442 9.87787 18.4195C7.18862 19.5993 4.34229 21.0274 4.5422 24.1835C4.5422 24.1839 4.54207 24.1843 4.54207 24.1846C4.54207 24.1846 4.54207 24.1885 4.5427 24.1911C4.54258 24.1886 4.54233 24.1861 4.5422 24.1835C4.69424 23.3956 5.18072 22.8229 5.74064 22.3958C5.74341 22.3938 5.74681 22.3913 5.74959 22.3887C6.40889 21.8877 7.13509 21.5011 7.8997 21.1915L6.75442 26.1912H1.50365ZM21.3487 26.1912L24.8899 10.7551H29.4996L28.8959 14.3396C29.1118 13.859 29.3536 13.4153 29.6217 13.0088C30.1509 12.2061 30.8021 11.5783 31.5755 11.1256C32.3488 10.6727 33.224 10.4463 34.2009 10.4463C34.5469 10.4463 34.8319 10.4772 35.0557 10.539C35.3 10.5801 35.5034 10.6419 35.6663 10.7242L34.4146 15.139C34.2111 15.0361 33.9669 14.964 33.6819 14.9229C33.4174 14.8611 33.0714 14.8302 32.644 14.8302C32.0131 14.8302 31.3924 14.9743 30.7818 15.2624C30.1915 15.53 29.6726 15.9725 29.2249 16.5899C28.7771 17.2073 28.4312 18.0307 28.1869 19.0597L26.5384 26.1912H21.3487ZM44.1527 22.3013C43.7253 22.6305 43.247 22.7952 42.718 22.7952C42.1888 22.7952 41.7309 22.6821 41.3442 22.4557C40.9575 22.2086 40.6623 21.8691 40.4589 21.4369C40.2758 21.0046 40.1842 20.5004 40.1842 19.9242C40.1842 19.245 40.2656 18.5658 40.4283 17.8865C40.6116 17.2073 40.8557 16.5899 41.161 16.0343C41.4867 15.4579 41.8632 15.0052 42.2906 14.6758C42.7383 14.326 43.2166 14.151 43.7253 14.151C44.2749 14.151 44.7328 14.2745 45.0991 14.5215C45.4858 14.7479 45.7708 15.0772 45.9539 15.5095C46.1574 15.9211 46.2591 16.4253 46.2591 17.0222C46.2591 17.7013 46.1778 18.3805 46.0149 19.0597C45.8521 19.7183 45.6079 20.3358 45.2823 20.912C44.9771 21.4883 44.6005 21.9514 44.1527 22.3013ZM89.1925 22.6409C89.7013 22.6409 90.1694 22.4762 90.5968 22.147C91.0242 21.8176 91.3905 21.3854 91.6959 20.8503C92.0215 20.2946 92.2657 19.6977 92.4285 19.0597C92.6116 18.4011 92.7033 17.7528 92.7033 17.1148C92.7033 16.5385 92.6016 16.0445 92.398 15.6329C92.2149 15.2008 91.9502 14.8714 91.6043 14.645C91.2583 14.4186 90.8411 14.3054 90.3527 14.3054C89.7828 14.3054 89.274 14.4803 88.8262 14.8302C88.3786 15.1595 88.002 15.5917 87.6967 16.1269C87.3915 16.662 87.1574 17.2486 86.9946 17.8865C86.8318 18.504 86.7503 19.1008 86.7503 19.6771C86.7503 20.2946 86.8419 20.8298 87.025 21.2825C87.2083 21.7147 87.4729 22.0543 87.8189 22.3013C88.1852 22.5276 88.6431 22.6409 89.1925 22.6409ZM109.468 22.147C109.041 22.4762 108.573 22.6409 108.064 22.6409C107.514 22.6409 107.056 22.5276 106.69 22.3013C106.344 22.0543 106.08 21.7147 105.896 21.2825C105.713 20.8298 105.622 20.2946 105.622 19.6771C105.622 19.1008 105.703 18.504 105.866 17.8865C106.029 17.2486 106.263 16.662 106.568 16.1269C106.873 15.5917 107.25 15.1595 107.697 14.8302C108.145 14.4803 108.654 14.3054 109.224 14.3054C109.712 14.3054 110.129 14.4186 110.476 14.645C110.822 14.8714 111.086 15.2008 111.269 15.6329C111.473 16.0445 111.575 16.5385 111.575 17.1148C111.575 17.7528 111.483 18.4011 111.3 19.0597C111.137 19.6977 110.893 20.2946 110.567 20.8503C110.262 21.3854 109.895 21.8176 109.468 22.147ZM125.042 16.0343C124.882 16.3472 124.747 16.6766 124.638 17.0222H130.177C130.193 16.8389 130.202 16.6639 130.202 16.4973C130.202 15.9622 130.11 15.5197 129.927 15.1698C129.743 14.82 129.489 14.5626 129.164 14.3981C128.838 14.2128 128.451 14.1202 128.004 14.1202C127.271 14.1202 126.66 14.295 126.172 14.645C125.704 14.9948 125.327 15.4579 125.042 16.0343Z" fill="#F20E17"/>
</g>
</svg>
