<svg viewBox="0 0 20 20" fill="none" xmlns="http://www.w3.org/2000/svg">
<path d="M18.3333 17.5H9.16665C6.41679 17.5 5.04186 17.5 4.18758 16.6457C3.33331 15.7915 3.33331 14.4165 3.33331 11.6667V2.5" stroke="currentColor" stroke-width="1.5" stroke-linecap="round"/>
<path fill-rule="evenodd" clip-rule="evenodd" d="M16.3813 2.60034C16.6711 2.78786 16.754 3.17481 16.5665 3.46461L11.9832 10.5479C11.8923 10.6884 11.749 10.7865 11.5852 10.8204C11.4214 10.8543 11.2509 10.8212 11.1117 10.7284L9.18005 9.44064L7.00712 13.4244C6.84183 13.7274 6.46218 13.839 6.15915 13.6738C5.85612 13.5085 5.74446 13.1288 5.90975 12.8258L8.40975 8.24246C8.49373 8.08849 8.63854 7.97689 8.80882 7.93491C8.9791 7.89293 9.15919 7.92443 9.30512 8.02171L11.2779 9.33691L15.517 2.78554C15.7046 2.49574 16.0915 2.41282 16.3813 2.60034Z" fill="currentColor"/>
<path fill-rule="evenodd" clip-rule="evenodd" d="M16.9192 11.4527C17.1524 11.7072 17.1353 12.1025 16.8808 12.3358L14.6081 14.4191C14.4766 14.5396 14.2999 14.5983 14.1224 14.5802L10.1681 14.1774L6.66166 15.3828C6.33523 15.495 5.97964 15.3213 5.86743 14.9949C5.75522 14.6685 5.92888 14.3129 6.25531 14.2007L9.89167 12.9507C9.97724 12.9213 10.0682 12.9108 10.1582 12.9199L13.9701 13.3082L16.0362 11.4143C16.2906 11.1811 16.686 11.1983 16.9192 11.4527Z" fill="currentColor"/>
</svg>
