<svg viewBox="0 0 18 15" fill="none" xmlns="http://www.w3.org/2000/svg">
<path d="M10.6666 12.1667V5.49999C10.6666 4.71432 10.6666 4.32148 10.4226 4.07741C10.1785 3.83333 9.78565 3.83333 8.99998 3.83333C8.21431 3.83333 7.82147 3.83333 7.57739 4.07741C7.33331 4.32148 7.33331 4.71432 7.33331 5.5V12.1667C7.33331 12.9523 7.33331 13.3452 7.57739 13.5893C7.82147 13.8333 8.21431 13.8333 8.99998 13.8333C9.78565 13.8333 10.1785 13.8333 10.4226 13.5893C10.6666 13.3452 10.6666 12.9523 10.6666 12.1667Z" stroke="currentColor" stroke-width="1.5" stroke-linecap="round" stroke-linejoin="round"/>
<path d="M16.5 6.33333V4.66667C16.5 3.88099 16.5 3.48816 16.2559 3.24408C16.0119 3 15.619 3 14.8334 3C14.0477 3 13.6548 3 13.4108 3.24408C13.1667 3.48816 13.1667 3.88099 13.1667 4.66667V6.33333C13.1667 7.11901 13.1667 7.51184 13.4108 7.75592C13.6548 8 14.0477 8 14.8334 8C15.619 8 16.0119 8 16.2559 7.75592C16.5 7.51184 16.5 7.11901 16.5 6.33333Z" stroke="currentColor" stroke-width="1.5" stroke-linecap="round" stroke-linejoin="round"/>
<path d="M4.83333 12.1667V10.5C4.83333 9.71432 4.83333 9.32148 4.58926 9.07741C4.34518 8.83333 3.95234 8.83333 3.16667 8.83333C2.38099 8.83333 1.98816 8.83333 1.74408 9.07741C1.5 9.32148 1.5 9.71432 1.5 10.5V12.1667C1.5 12.9523 1.5 13.3452 1.74408 13.5893C1.98816 13.8333 2.38099 13.8333 3.16667 13.8333C3.95234 13.8333 4.34518 13.8333 4.58926 13.5893C4.83333 13.3452 4.83333 12.9523 4.83333 12.1667Z" stroke="currentColor" stroke-width="1.5" stroke-linecap="round" stroke-linejoin="round"/>
<path d="M9 3.83333L9 1.33333" stroke="currentColor" stroke-width="1.5" stroke-linecap="round" stroke-linejoin="round"/>
<path d="M14.8333 2.99999L14.8333 1.33333" stroke="currentColor" stroke-width="1.5" stroke-linecap="round" stroke-linejoin="round"/>
<path d="M3.16669 8.83332L3.16669 7.16666" stroke="currentColor" stroke-width="1.5" stroke-linecap="round" stroke-linejoin="round"/>
</svg>
