<svg viewBox="0 0 20 20" fill="none" xmlns="http://www.w3.org/2000/svg">
<path fill-rule="evenodd" clip-rule="evenodd" d="M13.3703 4.84376C13.8204 4.84376 14.1852 4.49398 14.1852 4.06251C14.1852 3.63103 13.8204 3.28125 13.3703 3.28125C12.9203 3.28125 12.5555 3.63103 12.5555 4.06251C12.5555 4.49398 12.9203 4.84376 13.3703 4.84376ZM13.3703 5.62501C14.2704 5.62501 15 4.92546 15 4.06251C15 3.19956 14.2704 2.5 13.3703 2.5C12.4703 2.5 11.7407 3.19956 11.7407 4.06251C11.7407 4.92546 12.4703 5.62501 13.3703 5.62501Z" fill="currentColor"/>
<path fill-rule="evenodd" clip-rule="evenodd" d="M13.3703 12.6563C13.8204 12.6563 14.1852 12.3065 14.1852 11.875C14.1852 11.4436 13.8204 11.0938 13.3703 11.0938C12.9203 11.0938 12.5555 11.4436 12.5555 11.875C12.5555 12.3065 12.9203 12.6563 13.3703 12.6563ZM13.3703 13.4375C14.2704 13.4375 15 12.738 15 11.875C15 11.0121 14.2704 10.3125 13.3703 10.3125C12.4703 10.3125 11.7407 11.0121 11.7407 11.875C11.7407 12.738 12.4703 13.4375 13.3703 13.4375Z" fill="currentColor"/>
<path fill-rule="evenodd" clip-rule="evenodd" d="M13.3703 8.75001C13.8204 8.75001 14.1852 8.40023 14.1852 7.96876C14.1852 7.53728 13.8204 7.1875 13.3703 7.1875C12.9203 7.1875 12.5555 7.53728 12.5555 7.96876C12.5555 8.40023 12.9203 8.75001 13.3703 8.75001ZM13.3703 9.53126C14.2704 9.53126 15 8.83171 15 7.96876C15 7.10581 14.2704 6.40625 13.3703 6.40625C12.4703 6.40625 11.7407 7.10581 11.7407 7.96876C11.7407 8.83171 12.4703 9.53126 13.3703 9.53126Z" fill="currentColor"/>
<path fill-rule="evenodd" clip-rule="evenodd" d="M5.99235 6.29837C5.78022 6.50177 5.78022 6.83154 5.99235 7.03493C6.20449 7.23833 6.54842 7.23833 6.76056 7.03493L7.46291 6.36151L8.16526 7.03493C8.37739 7.23833 8.72133 7.23833 8.93346 7.03493C9.1456 6.83154 9.1456 6.50177 8.93346 6.29837L8.23111 5.62494L8.93336 4.95161C9.1455 4.74822 9.1455 4.41844 8.93336 4.21505C8.72123 4.01165 8.37729 4.01165 8.16516 4.21505L7.46291 4.88838L6.76066 4.21505C6.54852 4.01165 6.20459 4.01165 5.99245 4.21505C5.78032 4.41844 5.78032 4.74822 5.99245 4.95161L6.6947 5.62494L5.99235 6.29837Z" fill="currentColor"/>
<path fill-rule="evenodd" clip-rule="evenodd" d="M5.99235 14.1109C5.78022 14.3143 5.78022 14.6441 5.99235 14.8475C6.20449 15.0509 6.54842 15.0509 6.76056 14.8475L7.46291 14.1741L8.16526 14.8475C8.37739 15.0509 8.72133 15.0509 8.93346 14.8475C9.1456 14.6441 9.1456 14.3143 8.93346 14.1109L8.23111 13.4375L8.93336 12.7642C9.1455 12.5608 9.1455 12.231 8.93336 12.0276C8.72123 11.8242 8.37729 11.8242 8.16516 12.0276L7.46291 12.7009L6.76066 12.0276C6.54852 11.8242 6.20459 11.8242 5.99245 12.0276C5.78032 12.231 5.78032 12.5608 5.99245 12.7642L6.6947 13.4375L5.99235 14.1109Z" fill="currentColor"/>
<path fill-rule="evenodd" clip-rule="evenodd" d="M5.99235 10.2046C5.78022 10.408 5.78022 10.7378 5.99235 10.9412C6.20449 11.1446 6.54842 11.1446 6.76056 10.9412L7.46291 10.2678L8.16526 10.9412C8.37739 11.1446 8.72133 11.1446 8.93346 10.9412C9.1456 10.7378 9.1456 10.408 8.93346 10.2046L8.23111 9.53122L8.93336 8.85789C9.1455 8.6545 9.1455 8.32473 8.93336 8.12133C8.72123 7.91793 8.37729 7.91793 8.16516 8.12133L7.46291 8.79466L6.76066 8.12133C6.54852 7.91793 6.20459 7.91793 5.99245 8.12133C5.78032 8.32473 5.78032 8.6545 5.99245 8.85789L6.6947 9.53122L5.99235 10.2046Z" fill="currentColor"/>
<path d="M17.5 17.5H8.33333C5.58347 17.5 4.20854 17.5 3.35427 16.6457C2.5 15.7915 2.5 14.4165 2.5 11.6667V2.5" stroke="currentColor" stroke-width="1.5" stroke-linecap="round"/>
</svg>
