<svg  viewBox="0 0 20 20" fill="none" xmlns="http://www.w3.org/2000/svg">
<path d="M2.08337 9.99999C2.08337 6.26804 2.08337 4.40207 3.24274 3.2427C4.40211 2.08333 6.26809 2.08333 10 2.08333C13.732 2.08333 15.598 2.08333 16.7573 3.2427C17.9167 4.40207 17.9167 6.26804 17.9167 9.99999C17.9167 13.7319 17.9167 15.5979 16.7573 16.7573C15.598 17.9167 13.732 17.9167 10 17.9167C6.26809 17.9167 4.40211 17.9167 3.24274 16.7573C2.08337 15.5979 2.08337 13.7319 2.08337 9.99999Z" stroke="currentColor" stroke-width="1.5"/>
<path fill-rule="evenodd" clip-rule="evenodd" d="M10 1.45833C10.3452 1.45833 10.625 1.59483 10.625 1.76321L10.625 9.48678C10.625 9.65516 10.3452 9.79166 10 9.79166C9.65482 9.79166 9.375 9.65516 9.375 9.48678L9.375 1.76321C9.375 1.59483 9.65482 1.45833 10 1.45833Z" fill="currentColor"/>
<path fill-rule="evenodd" clip-rule="evenodd" d="M18.5416 10C18.5416 10.3452 18.2618 10.625 17.9166 10.625L2.08329 10.625C1.73812 10.625 1.45829 10.3452 1.45829 10C1.45829 9.65482 1.73812 9.375 2.08329 9.375L17.9166 9.375C18.2618 9.375 18.5416 9.65482 18.5416 10Z" fill="currentColor"/>
</svg>