<svg  viewBox="0 0 20 20" fill="none" xmlns="http://www.w3.org/2000/svg">
<path d="M2.08337 10C2.08337 6.26805 2.08337 4.40207 3.24274 3.2427C4.40211 2.08333 6.26809 2.08333 10 2.08333C13.732 2.08333 15.598 2.08333 16.7573 3.2427C17.9167 4.40207 17.9167 6.26805 17.9167 10C17.9167 13.732 17.9167 15.5979 16.7573 16.7573C15.598 17.9167 13.732 17.9167 10 17.9167C6.26809 17.9167 4.40211 17.9167 3.24274 16.7573C2.08337 15.5979 2.08337 13.732 2.08337 10Z" stroke="currentColor" stroke-width="1.5"/>
<path fill-rule="evenodd" clip-rule="evenodd" d="M1.45837 10C1.45837 9.65482 1.7382 9.375 2.08337 9.375H17.9167C18.2619 9.375 18.5417 9.65482 18.5417 10C18.5417 10.3452 18.2619 10.625 17.9167 10.625H2.08337C1.7382 10.625 1.45837 10.3452 1.45837 10Z" fill="currentColor"/>
</svg>
