<svg  viewBox="0 0 20 20" fill="none" xmlns="http://www.w3.org/2000/svg">
<path d="M2.08337 9.99999C2.08337 6.26804 2.08337 4.40207 3.24274 3.2427C4.40211 2.08333 6.26809 2.08333 10 2.08333C13.732 2.08333 15.598 2.08333 16.7573 3.2427C17.9167 4.40207 17.9167 6.26804 17.9167 9.99999C17.9167 13.7319 17.9167 15.5979 16.7573 16.7573C15.598 17.9167 13.732 17.9167 10 17.9167C6.26809 17.9167 4.40211 17.9167 3.24274 16.7573C2.08337 15.5979 2.08337 13.7319 2.08337 9.99999Z" stroke="currentColor" stroke-width="1.5"/>
<path fill-rule="evenodd" clip-rule="evenodd" d="M18.25 7.29167C18.25 7.63685 17.9784 7.91667 17.6433 7.91667L2.27337 7.91667C1.9383 7.91667 1.66667 7.63685 1.66667 7.29167C1.66667 6.94649 1.9383 6.66667 2.27337 6.66667L17.6433 6.66667C17.9784 6.66667 18.25 6.94649 18.25 7.29167Z" fill="currentColor"/>
<path fill-rule="evenodd" clip-rule="evenodd" d="M18.25 13.125C18.25 13.4702 17.9784 13.75 17.6433 13.75L2.27337 13.75C1.9383 13.75 1.66667 13.4702 1.66667 13.125C1.66667 12.7798 1.9383 12.5 2.27337 12.5L17.6433 12.5C17.9784 12.5 18.25 12.7798 18.25 13.125Z" fill="currentColor"/>
</svg>
