<svg  viewBox="0 0 20 20" fill="none" xmlns="http://www.w3.org/2000/svg">
<path d="M2.08337 10C2.08337 6.26805 2.08337 4.40207 3.24274 3.2427C4.40211 2.08334 6.26809 2.08334 10 2.08334C13.732 2.08334 15.598 2.08334 16.7573 3.2427C17.9167 4.40207 17.9167 6.26805 17.9167 10C17.9167 13.732 17.9167 15.5979 16.7573 16.7573C15.598 17.9167 13.732 17.9167 10 17.9167C6.26809 17.9167 4.40211 17.9167 3.24274 16.7573C2.08337 15.5979 2.08337 13.732 2.08337 10Z" stroke="currentColor" stroke-width="1.5"/>
<path fill-rule="evenodd" clip-rule="evenodd" d="M10 1.45834C10.3452 1.45834 10.625 1.73816 10.625 2.08334L10.625 17.9167C10.625 18.2618 10.3452 18.5417 10 18.5417C9.65482 18.5417 9.375 18.2618 9.375 17.9167L9.375 2.08334C9.375 1.73816 9.65482 1.45834 10 1.45834Z" fill="currentColor"/>
</svg>
