<svg viewBox="0 0 20 20" fill="none" xmlns="http://www.w3.org/2000/svg">
<path d="M11.104 8.89603L4.53384 15.4662M5.2429 10.6979L2.02473 9.93778C1.67067 9.85414 1.54614 9.41458 1.80263 9.15717L4.36192 6.59787C4.53384 6.42595 4.7671 6.32745 5.0115 6.32559L7.89698 6.3005M11.5315 2.99869C13.6791 4.46327 15.5368 6.32094 17.0013 8.46856M9.30115 14.7571L10.0613 17.9753C10.145 18.3294 10.5845 18.4539 10.8419 18.1974L13.4012 15.6381C13.5731 15.4662 13.6717 15.2329 13.6735 14.9885L13.6986 12.103M17.5524 6.95844L18.3033 3.34532C18.5077 2.36212 17.6379 1.4923 16.6547 1.69674L13.0416 2.44762C11.9775 2.66879 11.0018 3.1957 10.2342 3.96424L7.2697 6.92778C6.13874 8.05873 5.40274 9.52517 5.17041 11.1078L5.16019 11.1756C5.01336 12.1858 5.35163 13.2052 6.07276 13.9273C6.7939 14.6484 7.81427 14.9867 8.82442 14.8389L8.89226 14.8287C10.4749 14.5973 11.9413 13.8604 13.0723 12.7294L16.0358 9.76586C16.8043 8.99826 17.3312 8.02249 17.5524 6.95844Z" stroke="currentColor" stroke-width="1.67" stroke-linecap="round" stroke-linejoin="round"/>
</svg>
