<!-- <svg viewBox="0 0 24 24" fill="none" xmlns="http://www.w3.org/2000/svg">
<rect width="24" height="24" rx="12" fill="#414651"/>
<path d="M17.3333 18V16.6667C17.3333 15.9594 17.0523 15.2811 16.5522 14.781C16.0521 14.281 15.3739 14 14.6666 14H9.33329C8.62605 14 7.94777 14.281 7.44767 14.781C6.94758 15.2811 6.66663 15.9594 6.66663 16.6667V18M14.6666 8.66667C14.6666 10.1394 13.4727 11.3333 12 11.3333C10.5272 11.3333 9.33329 10.1394 9.33329 8.66667C9.33329 7.19391 10.5272 6 12 6C13.4727 6 14.6666 7.19391 14.6666 8.66667Z" stroke="#FDFDFD" stroke-width="1.33333" stroke-linecap="round" stroke-linejoin="round"/>
</svg> -->
<svg width="12" height="14" viewBox="0 0 12 14" fill="none" xmlns="http://www.w3.org/2000/svg">
<path d="M11.3333 13V11.6667C11.3333 10.9594 11.0523 10.2811 10.5522 9.78105C10.0521 9.28095 9.37387 9 8.66663 9H3.33329C2.62605 9 1.94777 9.28095 1.44767 9.78105C0.947577 10.2811 0.666626 10.9594 0.666626 11.6667V13M8.66663 3.66667C8.66663 5.13943 7.47272 6.33333 5.99996 6.33333C4.5272 6.33333 3.33329 5.13943 3.33329 3.66667C3.33329 2.19391 4.5272 1 5.99996 1C7.47272 1 8.66663 2.19391 8.66663 3.66667Z" stroke="#FDFDFD" stroke-width="1.33333" stroke-linecap="round" stroke-linejoin="round"/>
</svg>
