<svg xmlns="http://www.w3.org/2000/svg" viewBox="0 0 20 20" width="20" height="20">
  <g fill="#535862" stroke="#535862" stroke-width="1.5" fill-rule="nonzero">
    <path d="M5.723 17.033c3.52 1.606 7.004 1.877 9.624-.369l-.467-.544c-2.346 2.017-5.567 1.765-8.855.261l-.302.652z"></path>
    <path d="M17.168 14.32c1.618-2.987 1.298-6.246-.093-9.286l-.651.299c1.306 2.857 1.605 5.897.114 8.656l.63.331z"></path>
    <path d="M5.875 15.46L14.75 7.255l-.521-.49-8.875 8.205z"></path>
    <path d="M4.5 17c.621 0 1.125-.504 1.125-1.125S5.121 14.75 4.5 14.75 3.375 15.254 3.375 15.875 3.879 17 4.5 17zm0 .75C3.378 17.75 2.5 16.872 2.5 15.75S3.378 13.75 4.5 13.75 6.5 14.628 6.5 15.75 5.622 17.75 4.5 17.75zM16.5 5c.621 0 1.125-.504 1.125-1.125S17.121 2.75 16.5 2.75 15.375 3.254 15.375 3.875 15.879 5 16.5 5zm0 .75C15.378 5.75 14.5 4.872 14.5 3.75S15.378 1.75 16.5 1.75 18.5 2.628 18.5 3.75 17.622 5.75 16.5 5.75zM16.5 17c.621 0 1.125-.504 1.125-1.125S17.121 14.75 16.5 14.75 15.375 15.254 15.375 15.875 15.879 17 16.5 17zm0 .75C15.378 17.75 14.5 16.872 14.5 15.75S15.378 13.75 16.5 13.75 18.5 14.628 18.5 15.75 17.622 17.75 16.5 17.75z"></path>
  </g>
</svg>
