<svg width="20" height="20" viewBox="0 0 20 20" fill="none" xmlns="http://www.w3.org/2000/svg">
<path d="M16.67 5H15.02C14.3624 4.33864 13.5805 3.81399 12.7192 3.45628C11.8579 3.09858 10.9343 2.9149 10.0017 2.91583C9.06891 2.91479 8.14516 3.09841 7.28372 3.45612C6.42227 3.81383 5.64016 4.33854 4.9825 5H3.33333C4.10928 3.96406 5.11608 3.12332 6.27378 2.54454C7.43148 1.96576 8.70818 1.6649 10.0025 1.66583C11.2965 1.66515 12.5729 1.96615 13.7303 2.54491C14.8877 3.12368 15.8942 3.96429 16.67 5ZM2.91667 10C2.91667 9.71833 2.93278 9.44056 2.965 9.16667H1.70833C1.68167 9.44167 1.66806 9.71945 1.6675 10C1.6675 14.6033 5.39917 18.335 10.0025 18.335C14.3242 18.335 17.8775 15.0458 18.2958 10.8333H17.5V11.6667H16.8892C16.4824 13.353 15.4712 14.8315 14.0471 15.822C12.623 16.8125 10.885 17.2461 9.1625 17.0406C7.44003 16.8352 5.85278 16.0049 4.70161 14.7072C3.55043 13.4096 2.91532 11.7347 2.91667 10ZM10.0017 13.7517C9.43366 13.7525 8.87292 13.6241 8.36194 13.376C7.85097 13.128 7.40317 12.7668 7.0525 12.32C7.00246 12.2535 6.93963 12.1976 6.8677 12.1557C6.79577 12.1137 6.71618 12.0866 6.63362 12.0759C6.55106 12.0651 6.46719 12.071 6.38693 12.0931C6.30666 12.1152 6.23163 12.1532 6.16623 12.2047C6.10083 12.2562 6.04638 12.3203 6.00608 12.3931C5.96578 12.466 5.94045 12.5462 5.93156 12.6289C5.92268 12.7117 5.93042 12.7954 5.95433 12.8752C5.97825 12.9549 6.01786 13.0291 6.07083 13.0933C6.53844 13.6887 7.13534 14.1698 7.81635 14.5005C8.49736 14.8311 9.24465 15.0025 10.0017 15.0017C10.7576 15.0024 11.5038 14.8315 12.184 14.5018C12.8642 14.1721 13.4607 13.6922 13.9283 13.0983C13.9792 13.0339 14.0169 12.9601 14.0393 12.8812C14.0617 12.8022 14.0683 12.7196 14.0587 12.6381C14.0491 12.5565 14.0236 12.4777 13.9836 12.406C13.9436 12.3344 13.8898 12.2713 13.8254 12.2204C13.761 12.1695 13.6872 12.1318 13.6082 12.1095C13.5293 12.0871 13.4467 12.0805 13.3651 12.0901C13.2836 12.0996 13.2048 12.1251 13.1331 12.1652C13.0615 12.2052 12.9984 12.2589 12.9475 12.3233C12.5963 12.7689 12.1485 13.1289 11.6379 13.3763C11.1274 13.6237 10.5673 13.7521 10 13.7517M2.5 5.83334H18.3333V8.33333H17.5V10H16.6667V10.8333H12.5V10H11.6667V8.33333H10V10H9.16667V10.8333H5V10H4.16667V8.33333H3.33333V7.5H1.66667V6.66667H2.5V5.83334ZM0.833333 8.33333V7.5H1.66667V8.33333H0.833333ZM0.833333 8.33333H0V10H0.833333V8.33333ZM5.83333 7.5H5V8.33333H5.83333V9.16667H6.66667V8.33333H5.83333V7.5ZM13.3333 7.5H12.5V8.33333H13.3333V9.16667H14.1667V8.33333H13.3333V7.5Z" fill="#535862"/>
</svg>
