<svg xmlns="http://www.w3.org/2000/svg" viewBox="0 0 20 20" width="20" height="20">
  <g fill="#000" fill-rule="nonzero">
    <!-- Adjusted Paths -->
    <path d="M3.168 15.476l1.49-6.462-.697-.16-1.49 6.462zM7.176 11.707l-1.596-3.19-.64.32 1.596 3.19zM9.655 4.5l-2.059 7.2.688.197 2.059-7.2zM13.161 11.69l-2.088-7.3-.687.197 2.088 7.3zM15.105 8.709l-1.574 3.15.64.32 1.574-3.15zM18.232 15.24l-1.495-6.485-.697.16 1.495 6.485z"></path>
    <path d="M1 14h5.5v-.75H1z"></path>
    <path d="M9 14h3v-.75H9z"></path>
    <path d="M15 14h4.5v-.75H15z"></path>
    <path d="M4.5 8c.621 0 1.125-.504 1.125-1.125S5.121 5.75 4.5 5.75 3.375 6.254 3.375 6.875 3.879 8 4.5 8zm0 .75C3.378 8.75 2.5 7.872 2.5 6.75S3.378 4.75 4.5 4.75 6.5 5.628 6.5 6.75 5.622 8.75 4.5 8.75zM2.5 18c.621 0 1.125-.504 1.125-1.125S3.121 15.75 2.5 15.75 1.375 16.254 1.375 16.875 1.879 18 2.5 18zm0 .75C1.378 18.75.5 17.872.5 16.75S1.378 14.75 2.5 14.75 4.5 15.628 4.5 16.75 3.622 18.75 2.5 18.75zM7.5 14c.621 0 1.125-.504 1.125-1.125S8.121 11.75 7.5 11.75 6.375 12.254 6.375 12.875 6.879 14 7.5 14zm0 .75C6.378 14.75 5.5 13.872 5.5 12.75S6.378 10.75 7.5 10.75 9.5 11.628 9.5 12.75 8.622 14.75 7.5 14.75zM13.5 14c.621 0 1.125-.504 1.125-1.125S14.121 11.75 13.5 11.75 12.375 12.254 12.375 12.875 12.879 14 13.5 14zm0 .75C12.378 14.75 11.5 13.872 11.5 12.75S12.378 10.75 13.5 10.75 15.5 11.628 15.5 12.75 14.622 14.75 13.5 14.75zM16.5 8c.621 0 1.125-.504 1.125-1.125S17.121 5.75 16.5 5.75 15.375 6.254 15.375 6.875 15.879 8 16.5 8zm0 .75C15.378 8.75 14.5 7.872 14.5 6.75S15.378 4.75 16.5 4.75 18.5 5.628 18.5 6.75 17.622 8.75 16.5 8.75zM18.5 18c.621 0 1.125-.504 1.125-1.125S19.121 15.75 18.5 15.75 17.375 16.254 17.375 16.875 17.879 18 18.5 18zm0 .75C17.378 18.75 16.5 17.872 16.5 16.75S17.378 14.75 18.5 14.75 20.5 15.628 20.5 16.75 19.622 18.75 18.5 18.75zM11.5 5.5c.621 0 1.125-.504 1.125-1.125S12.121 3.25 11.5 3.25 10.375 3.754 10.375 4.375 10.879 5.5 11.5 5.5zm0 .75C10.378 6.25 9.5 5.372 9.5 4.25S10.378 2.25 11.5 2.25 13.5 3.128 13.5 4.25 12.622 6.25 11.5 6.25z"></path>
  </g>
</svg>
