<svg width="16" height="16" viewBox="0 0 16 16" fill="none" xmlns="http://www.w3.org/2000/svg">
<path d="M3.28666 8L5.05417 9.76834M5.64333 5.64334L7.41083 7.41M8 3.28667L9.76833 5.055M2.225 9.06084L9.06 2.225C9.72 1.565 10.05 1.235 10.4308 1.11167C10.7656 1.00292 11.1261 1.00292 11.4608 1.11167C11.8408 1.235 12.1708 1.565 12.83 2.22417L13.775 3.16667C14.435 3.82667 14.765 4.15834 14.8892 4.53834C14.9975 4.87334 14.9975 5.23334 14.8892 5.5675C14.765 5.94834 14.435 6.27834 13.775 6.93834L6.94 13.7742C6.28 14.4342 5.94917 14.7642 5.56917 14.8875C5.23417 14.9958 4.87416 14.9958 4.54 14.8875C4.15916 14.7642 3.82833 14.4342 3.16833 13.7742L2.22416 12.83C1.56583 12.1708 1.235 11.8408 1.11167 11.4608C1.00291 11.1261 1.00291 10.7656 1.11167 10.4308C1.235 10.05 1.56583 9.72 2.22583 9.06" stroke="#535862" stroke-width="1.5" stroke-linecap="round" stroke-linejoin="round"/>
</svg>
