<svg width="20" height="20" viewBox="0 0 20 20" fill="none" xmlns="http://www.w3.org/2000/svg">
<path fill-rule="evenodd" clip-rule="evenodd" d="M3.75 3.125C3.40482 3.125 3.125 3.40482 3.125 3.75V16.25C3.125 16.5952 3.40482 16.875 3.75 16.875H16.25C16.5952 16.875 16.875 16.5952 16.875 16.25V3.75C16.875 3.40482 16.5952 3.125 16.25 3.125H3.75ZM1.875 3.75C1.875 2.71447 2.71447 1.875 3.75 1.875H16.25C17.2855 1.875 18.125 2.71447 18.125 3.75V16.25C18.125 17.2855 17.2855 18.125 16.25 18.125H3.75C2.71447 18.125 1.875 17.2855 1.875 16.25V3.75Z" fill="#535862"/>
<path fill-rule="evenodd" clip-rule="evenodd" d="M6.04169 6.66667C6.04169 6.32149 6.32151 6.04167 6.66669 6.04167H13.3334C13.6785 6.04167 13.9584 6.32149 13.9584 6.66667V7.91667C13.9584 8.26185 13.6785 8.54167 13.3334 8.54167C12.9882 8.54167 12.7084 8.26185 12.7084 7.91667V7.29167H10.5895C10.6125 7.35683 10.625 7.42696 10.625 7.50001V13.5417H10.8334C11.1785 13.5417 11.4584 13.8215 11.4584 14.1667C11.4584 14.5118 11.1785 14.7917 10.8334 14.7917H9.16669C8.82151 14.7917 8.54169 14.5118 8.54169 14.1667C8.54169 13.8215 8.82151 13.5417 9.16669 13.5417H9.37502V7.50001C9.37502 7.42696 9.38755 7.35683 9.41058 7.29167H7.29169V7.91667C7.29169 8.26185 7.01186 8.54167 6.66669 8.54167C6.32151 8.54167 6.04169 8.26185 6.04169 7.91667V6.66667Z" fill="#535862"/>
</svg>
