<svg width="20" height="20" viewBox="0 0 20 20" fill="none" xmlns="http://www.w3.org/2000/svg">
<path d="M1.66667 17.9167H18.3333M15 12.9167H15.0075M15 15.4167H15.0075M5 15.4167H5.0075M5 12.9167H5.0075M5 10.4167H5.0075M5 7.91666H5.0075M6.49167 4.49333L13.515 7.99166M6.66667 3.74999C6.66667 4.19202 6.49107 4.61595 6.17851 4.92851C5.86595 5.24107 5.44203 5.41666 5 5.41666C4.55797 5.41666 4.13405 5.24107 3.82149 4.92851C3.50893 4.61595 3.33333 4.19202 3.33333 3.74999C3.33333 3.30797 3.50893 2.88404 3.82149 2.57148C4.13405 2.25892 4.55797 2.08333 5 2.08333C5.44203 2.08333 5.86595 2.25892 6.17851 2.57148C6.49107 2.88404 6.66667 3.30797 6.66667 3.74999ZM16.6667 8.74999C16.6667 9.19202 16.4911 9.61595 16.1785 9.92851C15.866 10.2411 15.442 10.4167 15 10.4167C14.558 10.4167 14.1341 10.2411 13.8215 9.92851C13.5089 9.61595 13.3333 9.19202 13.3333 8.74999C13.3333 8.30797 13.5089 7.88404 13.8215 7.57148C14.1341 7.25892 14.558 7.08333 15 7.08333C15.442 7.08333 15.866 7.25892 16.1785 7.57148C16.4911 7.88404 16.6667 8.30797 16.6667 8.74999Z" stroke="#535862" stroke-width="1.5" stroke-linecap="round" stroke-linejoin="round"/>
</svg>
