<svg width="15" height="12" viewBox="0 0 15 12" fill="none" xmlns="http://www.w3.org/2000/svg">
<path d="M6.707 11.207C6.51947 11.3944 6.26516 11.4998 6 11.4998C5.73484 11.4998 5.48053 11.3944 5.293 11.207L0.793001 6.70697C0.605529 6.51944 0.500214 6.26513 0.500214 5.99997C0.500214 5.7348 0.605529 5.4805 0.793001 5.29297L5.293 0.792968C5.4816 0.610809 5.73421 0.510016 5.9964 0.512294C6.2586 0.514572 6.50941 0.619741 6.69482 0.805149C6.88023 0.990557 6.9854 1.24137 6.98767 1.50357C6.98995 1.76576 6.88916 2.01837 6.707 2.20697L4 4.99997L13.5 4.99997C13.7652 4.99997 14.0196 5.10533 14.2071 5.29286C14.3946 5.4804 14.5 5.73475 14.5 5.99997C14.5 6.26519 14.3946 6.51954 14.2071 6.70708C14.0196 6.89461 13.7652 6.99997 13.5 6.99997L4 6.99997L6.707 9.79297C6.89447 9.9805 6.99979 10.2348 6.99979 10.5C6.99979 10.7651 6.89447 11.0194 6.707 11.207Z" fill="#828282"/>
</svg>
