<svg width="12" height="24" viewBox="0 0 12 24" fill="none" xmlns="http://www.w3.org/2000/svg">
<path d="M2.22001 7.53007C2.36064 7.67052 2.55126 7.74941 2.75001 7.74941C2.94876 7.74941 3.13939 7.67052 3.28001 7.53007L6.00001 4.81007L8.72001 7.53007C8.86219 7.66255 9.05023 7.73468 9.24453 7.73125C9.43883 7.72782 9.62422 7.64911 9.76163 7.51169C9.89905 7.37428 9.97776 7.1889 9.98119 6.9946C9.98461 6.80029 9.91249 6.61225 9.78001 6.47007L6.53001 3.22007C6.38939 3.07962 6.19876 3.00073 6.00001 3.00073C5.80126 3.00073 5.61064 3.07962 5.47001 3.22007L2.22001 6.47007C2.07956 6.6107 2.00067 6.80132 2.00067 7.00007C2.00067 7.19882 2.07956 7.38945 2.22001 7.53007Z" fill="#9E9E9E"/>
<path d="M9.77999 16.4699C9.63936 16.3295 9.44874 16.2506 9.24999 16.2506C9.05124 16.2506 8.86061 16.3295 8.71999 16.4699L5.99999 19.1899L3.27999 16.4699C3.13781 16.3374 2.94977 16.2653 2.75547 16.2688C2.56117 16.2722 2.37578 16.3509 2.23837 16.4883C2.10095 16.6257 2.02224 16.8111 2.01881 17.0054C2.01539 17.1997 2.08751 17.3878 2.21999 17.5299L5.46999 20.7799C5.61061 20.9204 5.80124 20.9993 5.99999 20.9993C6.19874 20.9993 6.38936 20.9204 6.52999 20.7799L9.77999 17.5299C9.92044 17.3893 9.99933 17.1987 9.99933 16.9999C9.99933 16.8012 9.92044 16.6106 9.77999 16.4699Z" fill="#9E9E9E"/>
</svg>
