<svg width="14" height="14" viewBox="0 0 10 9" fill="none" xmlns="http://www.w3.org/2000/svg">
<path d="M4.15 2.35C4.10368 2.39576 4.0669 2.45026 4.0418 2.51034C4.01671 2.57042 4.00378 2.63489 4.00378 2.7C4.00378 2.76511 4.01671 2.82958 4.0418 2.88966C4.0669 2.94974 4.10368 3.00424 4.15 3.05L5.1 4H0.5C0.225 4 0 4.225 0 4.5C0 4.775 0.225 5 0.5 5H5.1L4.15 5.95C4.10368 5.99576 4.0669 6.05026 4.0418 6.11034C4.01671 6.17042 4.00378 6.23489 4.00378 6.3C4.00378 6.36511 4.01671 6.42958 4.0418 6.48966C4.0669 6.54974 4.10368 6.60424 4.15 6.65C4.345 6.845 4.655 6.845 4.85 6.65L6.645 4.855C6.69135 4.80874 6.72813 4.7538 6.75322 4.69331C6.77831 4.63283 6.79122 4.56798 6.79122 4.5025C6.79122 4.43702 6.77831 4.37217 6.75322 4.31169C6.72813 4.2512 6.69135 4.19626 6.645 4.15L4.85 2.35C4.80424 2.30368 4.74974 2.2669 4.68966 2.2418C4.62958 2.2167 4.56511 2.20378 4.5 2.20378C4.43489 2.20378 4.37042 2.2167 4.31034 2.2418C4.25026 2.2669 4.19576 2.30368 4.15 2.35ZM9 8H5.5C5.225 8 5 8.225 5 8.5C5 8.775 5.225 9 5.5 9H9C9.55 9 10 8.55 10 8V1C10 0.45 9.55 0 9 0H5.5C5.225 0 5 0.225 5 0.5C5 0.775 5.225 1 5.5 1H9V8Z" fill="#F20E17"/>
</svg>
