  <svg width="172" height="30" viewBox="0 0 172 30" fill="none" xmlns="http://www.w3.org/2000/svg">
                        <path d="M0.436224 29.5206C0.144781 29.5206 0 29.3765 0 29.0866V0.433961C0 0.144965 0.144781 0 0.436224 0H11.9585C13.5577 0 14.9971 0.231945 16.2757 0.695834C17.5561 1.15972 18.6486 1.81254 19.5511 2.6524C20.4536 3.49039 21.1362 4.48832 21.6006 5.64523C22.0669 6.80309 22.3001 8.09094 22.3001 9.50973C22.3001 10.8995 22.0594 12.1724 21.578 13.3293C21.0986 14.4872 20.416 15.486 19.5285 16.3259C18.641 17.1639 17.5561 17.8148 16.2757 18.2787C14.9971 18.7408 13.5577 18.9708 11.9585 18.9708H6.67873C6.50293 18.9708 6.4155 19.0587 6.4155 19.2327V29.0866C6.4155 29.3765 6.26977 29.5206 5.97927 29.5206H0.436224Z" fill="#F20E17"/>
                        <path d="M23.6081 29.521C23.3167 29.521 23.1719 29.377 23.1719 29.0871V8.94529C23.1719 8.65629 23.3167 8.51132 23.6081 8.51132H28.8465C29.137 8.51132 29.2828 8.65629 29.2828 8.94529V10.7223H29.3241C29.8177 9.88429 30.5294 9.22773 31.4601 8.75075C32.3927 8.2719 33.5134 8.03247 34.822 8.03247C35.5215 8.03247 36.1984 8.14096 36.8527 8.35794C37.5071 8.57492 38.0674 8.8873 38.5337 9.2932C38.7368 9.46529 38.7791 9.66731 38.6616 9.89925L36.221 14.3286C36.0752 14.5007 35.8712 14.5297 35.608 14.4147C34.5597 13.7488 33.5416 13.4308 32.5544 13.4607C31.4188 13.5187 30.5886 13.9377 30.065 14.7177C29.5432 15.4987 29.2828 16.5985 29.2828 18.0173V29.0871C29.2828 29.377 29.137 29.521 28.8465 29.521H23.6081Z" fill="#F20E17"/>
                        <path d="M47.4334 24.8746C49.12 24.8746 50.2106 24.1227 50.7051 22.6188C50.8499 22.1278 50.9514 21.6293 51.0097 21.1224C51.0698 20.6164 51.0999 19.914 51.0999 19.0162C51.0999 18.1183 51.0698 17.4169 51.0097 16.91C50.9514 16.404 50.8499 15.9055 50.7051 15.4135C50.2106 13.9078 49.12 13.154 47.4334 13.154C45.7459 13.154 44.6553 13.9078 44.1617 15.4135C44.016 15.9055 43.9135 16.404 43.8534 16.91C43.7951 17.4169 43.7669 18.1183 43.7669 19.0162C43.7669 19.914 43.7951 20.6164 43.8534 21.1224C43.9135 21.6293 44.016 22.1278 44.1617 22.6188C44.6553 24.1227 45.7459 24.8746 47.4334 24.8746ZM47.4334 29.9999C45.194 29.9999 43.2601 29.4939 41.6309 28.481C40.0007 27.4663 38.88 26.0035 38.2689 24.0928C38.0358 23.3427 37.8609 22.5692 37.7462 21.7733C37.6306 20.9783 37.5732 20.059 37.5732 19.0162C37.5732 17.9743 37.6306 17.0549 37.7462 16.259C37.8609 15.4641 38.0358 14.6897 38.2689 13.9358C38.88 12.026 40.0007 10.5642 41.6309 9.55133C43.2601 8.53938 45.194 8.03247 47.4334 8.03247C49.6747 8.03247 51.6085 8.53938 53.2359 9.55133C54.8652 10.5642 55.9858 12.026 56.5979 13.9358C56.831 14.6897 57.0049 15.4641 57.1206 16.259C57.2381 17.0549 57.2973 17.9743 57.2973 19.0162C57.2973 20.059 57.2381 20.9783 57.1206 21.7733C57.0049 22.5692 56.831 23.3427 56.5979 24.0928C55.9858 26.0035 54.8652 27.4663 53.2359 28.481C51.6085 29.4939 49.6747 29.9999 47.4334 29.9999Z" fill="#F20E17"/>
                        <path d="M65.2379 29.5206C64.9465 29.5206 64.8017 29.3765 64.8017 29.0866V5.94826C64.8017 5.7743 64.7133 5.68638 64.5385 5.68638H57.0324C56.741 5.68638 56.5962 5.54235 56.5962 5.25242V0.433961C56.5962 0.144965 56.741 0 57.0324 0H78.9827C79.2732 0 79.4189 0.144965 79.4189 0.433961V5.25242C79.4189 5.54235 79.2732 5.68638 78.9827 5.68638H71.4767C71.3037 5.68638 71.2172 5.7743 71.2172 5.94826V29.0866C71.2172 29.3765 71.0715 29.5206 70.781 29.5206H65.2379Z" fill="#300003"/>
                        <path d="M80.2048 29.521C79.9133 29.521 79.7686 29.377 79.7686 29.0871V8.94529C79.7686 8.65629 79.9133 8.51132 80.2048 8.51132H85.4432C85.7337 8.51132 85.8794 8.65629 85.8794 8.94529V10.7223H85.9208C86.4144 9.88429 87.1261 9.22773 88.0568 8.75075C88.9894 8.2719 90.1101 8.03247 91.4187 8.03247C92.1182 8.03247 92.7951 8.14096 93.4494 8.35794C94.1038 8.57492 94.6641 8.8873 95.1304 9.2932C95.3335 9.46529 95.3758 9.66731 95.2582 9.89925L92.8176 14.3286C92.6719 14.5007 92.4679 14.5297 92.2047 14.4147C91.1564 13.7488 90.1383 13.4308 89.1511 13.4607C88.0154 13.5187 87.1853 13.9377 86.6616 14.7177C86.1399 15.4987 85.8794 16.5985 85.8794 18.0173V29.0871C85.8794 29.377 85.7337 29.521 85.4432 29.521H80.2048Z" fill="#300003"/>
                        <path d="M103.158 25.4395C105.776 25.4395 107.084 24.4706 107.084 22.5328V21.0999C107.084 20.926 106.998 20.8381 106.825 20.8381H103.858C101.355 20.8381 100.105 21.634 100.105 23.2248C100.105 24.7016 101.122 25.4395 103.158 25.4395ZM107.611 29.521C107.319 29.521 107.174 29.377 107.174 29.0871V27.6991H107.129C106.575 28.3931 105.833 28.9505 104.903 29.3714C103.972 29.7904 102.78 29.9999 101.327 29.9999C100.394 29.9999 99.4992 29.8764 98.6418 29.6295C97.7844 29.3826 97.0341 29.0001 96.393 28.481C95.7537 27.9601 95.2441 27.2942 94.8662 26.4833C94.4873 25.6734 94.2983 24.7026 94.2983 23.5728C94.2983 21.2589 95.105 19.5511 96.7201 18.4513C98.3343 17.3514 100.452 16.8015 103.072 16.8015H106.825C106.998 16.8015 107.084 16.7145 107.084 16.5396V15.7615C107.084 14.7766 106.785 14.0537 106.189 13.5917C105.595 13.1278 104.454 12.8958 102.767 12.8958C101.689 12.8958 100.757 13.0268 99.973 13.2886C99.188 13.5486 98.5478 13.8648 98.0514 14.2389C97.8182 14.4138 97.6283 14.3848 97.4835 14.1528L95.5205 10.7223C95.3748 10.4632 95.419 10.2612 95.6521 10.1162C96.5547 9.48025 97.6527 8.97428 98.9464 8.59737C100.242 8.22139 101.763 8.03247 103.508 8.03247C105.223 8.03247 106.676 8.18492 107.87 8.48888C109.063 8.79377 110.031 9.25766 110.773 9.88055C111.515 10.5016 112.053 11.29 112.387 12.2449C112.722 13.2007 112.89 14.3286 112.89 15.6305V29.0871C112.89 29.377 112.745 29.521 112.454 29.521H107.611Z" fill="#300003"/>
                        <path d="M123.929 24.8742C125.586 24.8742 126.663 24.1223 127.159 22.6184C127.304 22.2143 127.406 21.7448 127.464 21.208C127.521 20.6721 127.55 19.9416 127.55 19.0157C127.55 18.0908 127.521 17.3603 127.464 16.8235C127.406 16.2876 127.304 15.8171 127.159 15.4131C126.693 13.9073 125.616 13.1535 123.929 13.1535C122.211 13.1535 121.121 13.9073 120.657 15.4131C120.512 15.8171 120.409 16.2876 120.349 16.8235C120.291 17.3603 120.262 18.0908 120.262 19.0157C120.262 19.9416 120.291 20.6721 120.349 21.208C120.409 21.7448 120.512 22.2143 120.657 22.6184C121.151 24.1223 122.241 24.8742 123.929 24.8742ZM127.987 29.5206C127.695 29.5206 127.55 29.3766 127.55 29.0866V27.5678H127.509C127.013 28.2916 126.313 28.8771 125.411 29.326C124.51 29.775 123.362 29.9994 121.966 29.9994C120.191 29.9994 118.691 29.573 117.468 28.72C116.247 27.8652 115.361 26.6129 114.81 24.964C114.546 24.1241 114.357 23.2618 114.242 22.3789C114.126 21.496 114.069 20.3756 114.069 19.0157C114.069 17.6269 114.126 16.498 114.242 15.6301C114.357 14.7622 114.546 13.9083 114.81 13.0675C115.361 11.3896 116.247 10.1307 117.468 9.29275C118.691 8.45289 120.191 8.03202 121.966 8.03202C123.362 8.03202 124.51 8.25648 125.411 8.70541C126.313 9.15434 127.013 9.74074 127.509 10.4637H127.55V0.433961C127.55 0.144966 127.695 0 127.987 0H133.225C133.516 0 133.661 0.144966 133.661 0.433961V29.0866C133.661 29.3766 133.516 29.5206 133.225 29.5206H127.987Z" fill="#300003"/>
                        <path d="M148.279 16.8015C148.452 16.8015 148.538 16.7145 148.538 16.5396C148.538 16.2235 148.517 15.941 148.474 15.6941C148.431 15.4472 148.38 15.2097 148.32 14.9796C148.089 14.2566 147.66 13.6927 147.034 13.2886C146.41 12.8827 145.66 12.6788 144.785 12.6788C143.913 12.6788 143.163 12.8827 142.536 13.2886C141.912 13.6927 141.484 14.2566 141.254 14.9796C141.194 15.2097 141.142 15.4472 141.1 15.6941C141.057 15.941 141.036 16.2235 141.036 16.5396C141.036 16.7145 141.122 16.8015 141.295 16.8015H148.279ZM145.048 29.9999C142.634 29.9999 140.627 29.4789 139.028 28.4361C137.428 27.3942 136.322 25.9175 135.711 24.0067C135.478 23.3408 135.296 22.6179 135.166 21.8369C135.035 21.0569 134.97 20.116 134.97 19.0162C134.97 17.9163 135.028 16.9689 135.143 16.173C135.258 15.378 135.433 14.6466 135.666 13.9807C136.277 12.0709 137.375 10.6016 138.96 9.57378C140.547 8.54686 142.474 8.03247 144.744 8.03247C147.1 8.03247 149.055 8.55435 150.61 9.59623C152.167 10.639 153.251 12.0859 153.863 13.9358C153.981 14.2828 154.082 14.6522 154.168 15.0432C154.255 15.4351 154.328 15.8765 154.386 16.3675C154.446 16.8595 154.489 17.43 154.518 18.0809C154.548 18.7319 154.563 19.5062 154.563 20.4041C154.563 20.694 154.402 20.8381 154.081 20.8381H141.295C141.122 20.8381 141.036 20.926 141.036 21.0999C141.063 21.5339 141.15 21.9248 141.295 22.2709C141.586 23.1968 142.11 23.8908 142.867 24.3546C143.624 24.8185 144.556 25.0505 145.661 25.0505C146.707 25.0505 147.622 24.8849 148.407 24.5529C149.194 24.219 149.893 23.7626 150.505 23.1837C150.765 22.9817 150.969 22.9817 151.114 23.1837L153.995 25.8735C154.228 26.0755 154.243 26.2794 154.04 26.4833C153.019 27.5532 151.754 28.4081 150.242 29.0459C148.73 29.6819 146.998 29.9999 145.048 29.9999Z" fill="#300003"/>
                        <path d="M156.307 29.521C156.015 29.521 155.871 29.377 155.871 29.0871V8.94529C155.871 8.65629 156.015 8.51132 156.307 8.51132H161.545C161.836 8.51132 161.981 8.65629 161.981 8.94529V10.7223H162.023C162.516 9.88429 163.228 9.22773 164.159 8.75075C165.091 8.2719 166.212 8.03247 167.521 8.03247C168.22 8.03247 168.897 8.14096 169.551 8.35794C170.206 8.57492 170.766 8.8873 171.232 9.2932C171.436 9.46529 171.478 9.66731 171.36 9.89925L168.92 14.3286C168.774 14.5007 168.57 14.5297 168.307 14.4147C167.258 13.7488 166.24 13.4308 165.253 13.4607C164.117 13.5187 163.287 13.9377 162.764 14.7177C162.242 15.4987 161.981 16.5985 161.981 18.0173V29.0871C161.981 29.377 161.836 29.521 161.545 29.521H156.307Z" fill="#300003"/>
                        <path d="M7.87975 17.7421C8.93529 17.2838 9.97377 16.8517 10.9079 16.4046C11.1261 16.3002 11.6855 15.7097 11.6855 15.7097C13.7916 13.3473 12.9397 11.5862 12.9397 11.5862C12.9397 11.5862 13.0611 12.8834 12.415 13.8093C12.2835 13.9982 12.0618 14.1142 11.82 14.1161C10.6972 14.1217 8.81388 14.7399 7.18442 15.4395C5.91817 15.9838 3.54221 14.8399 3.38869 14.045C2.99738 12.0183 4.98003 11.661 7.41118 7.20261C7.4483 7.13527 7.43426 7.0539 7.37606 7.00153C4.51246 4.45201 7.21753 1.92961 7.21753 1.92961C6.70782 3.93762 7.76537 4.6718 8.91924 4.91029C10.1042 4.29395 11.5099 4.42956 11.9755 4.50064C11.7608 4.69237 11.4768 4.8682 11.4768 4.8682C15.9297 2.76947 12.4581 0.0703125 12.4581 0.0703125C16.2839 0.790463 16.6973 3.22775 16.0813 5.00288C15.8013 5.12353 15.5705 5.26756 15.5705 5.26756C16.0702 5.06928 17.2903 4.64654 18.1522 4.87381C18.1522 4.87381 17.8702 6.65829 16.5488 7.29052C16.5488 7.29052 16.8057 7.24002 17.1308 7.04081C21.1713 8.8945 22.0683 9.78393 22.0713 9.78674C22.4426 10.1552 22.1767 11.6713 22.1205 12.0931C21.8857 13.8542 21.0298 15.4918 19.6803 16.7451C17.3054 18.9495 14.0996 19.6014 10.938 20.199C7.72323 20.8078 4.40309 21.5673 1.79435 23.5276C1.79033 23.5313 1.78532 23.5351 1.7813 23.5379C0.955534 24.1608 0.238129 24.9959 0.0143785 26.1454C0.0143785 26.1454 0.0143786 26.151 0.0153819 26.1547C-0.286631 21.5467 3.91245 19.4629 7.87975 17.7421Z" fill="#300003"/>
                    </svg>