<svg width="5" height="8" viewBox="0 0 5 8" fill="none" xmlns="http://www.w3.org/2000/svg">
<path d="M0.602684 0.41506C0.654858 0.362812 0.71682 0.321362 0.785027 0.293081C0.853233 0.264801 0.926347 0.250244 1.00018 0.250244C1.07402 0.250244 1.14714 0.264801 1.21534 0.293081C1.28355 0.321362 1.34551 0.362812 1.39768 0.41506L4.58518 3.60256C4.63743 3.65473 4.67888 3.7167 4.70716 3.7849C4.73544 3.85311 4.75 3.92622 4.75 4.00006C4.75 4.0739 4.73544 4.14701 4.70716 4.21522C4.67888 4.28342 4.63743 4.34539 4.58518 4.39756L1.39768 7.58506C1.34548 7.63726 1.28351 7.67867 1.21531 7.70692C1.14711 7.73517 1.07401 7.74971 1.00018 7.74971C0.926361 7.74971 0.853262 7.73517 0.785059 7.70692C0.716855 7.67867 0.654884 7.63726 0.602684 7.58506C0.550483 7.53286 0.509076 7.47089 0.480825 7.40269C0.452574 7.33448 0.438034 7.26138 0.438034 7.18756C0.438034 7.11374 0.452574 7.04064 0.480825 6.97243C0.509076 6.90423 0.550483 6.84226 0.602684 6.79006L3.39193 4.00006L0.602684 1.21006C0.550436 1.15789 0.508986 1.09592 0.480705 1.02772C0.452424 0.95951 0.437869 0.886397 0.437869 0.81256C0.437869 0.738722 0.452425 0.665609 0.480705 0.597403C0.508986 0.529196 0.550436 0.467234 0.602684 0.41506Z" fill="white"/>
</svg>
