<svg viewBox="0 0 12 13" fill="none" xmlns="http://www.w3.org/2000/svg">
<path d="M2 4.25714C2 3.55003 2 3.19648 2.21967 2.97681C2.43934 2.75714 2.79289 2.75714 3.5 2.75714C4.20711 2.75714 4.56066 2.75714 4.78033 2.97681C5 3.19648 5 3.55003 5 4.25714V9.25714C5 9.96425 5 10.3178 4.78033 10.5375C4.56066 10.7571 4.20711 10.7571 3.5 10.7571C2.79289 10.7571 2.43934 10.7571 2.21967 10.5375C2 10.3178 2 9.96425 2 9.25714V4.25714Z" stroke="currentColor" stroke-width="1.5"/>
<path d="M7 4.25714C7 3.55003 7 3.19648 7.21967 2.97681C7.43934 2.75714 7.79289 2.75714 8.5 2.75714C9.20711 2.75714 9.56066 2.75714 9.78033 2.97681C10 3.19648 10 3.55003 10 4.25714V9.25714C10 9.96425 10 10.3178 9.78033 10.5375C9.56066 10.7571 9.20711 10.7571 8.5 10.7571C7.79289 10.7571 7.43934 10.7571 7.21967 10.5375C7 10.3178 7 9.96425 7 9.25714V4.25714Z" stroke="currentColor" stroke-width="1.5"/>
</svg>
